<?xml version="1.0" standalone="no"?>
<!DOCTYPE svg PUBLIC "-//W3C//DTD SVG 20010904//EN"
 "http://www.w3.org/TR/2001/REC-SVG-20010904/DTD/svg10.dtd">
<svg version="1.0" xmlns="http://www.w3.org/2000/svg"
 width="300.000000pt" height="271.000000pt" viewBox="0 0 300.000000 271.000000"
 preserveAspectRatio="xMidYMid meet">
<metadata>
Created by potrace 1.10, written by Peter Selinger 2001-2011
</metadata>
<g transform="translate(0.000000,271.000000) scale(0.100000,-0.100000)"
fill="#000000" stroke="none">
<path d="M665 2220 c5 -9 775 -528 797 -538 4 -2 121 70 260 159 439 281 531
343 520 347 -12 4 -63 -23 -147 -78 -33 -21 -82 -53 -110 -70 -27 -16 -77 -48
-110 -70 -33 -22 -80 -52 -105 -67 -25 -15 -91 -57 -147 -95 -57 -37 -116 -74
-133 -83 l-29 -15 -389 260 c-353 236 -426 281 -407 250z"/>
<path d="M640 2199 c0 -13 117 -192 361 -550 81 -118 149 -225 153 -236 5 -14
-16 -55 -74 -147 -44 -70 -80 -129 -80 -132 0 -2 -20 -35 -45 -74 -25 -39 -45
-73 -45 -77 0 -3 -7 -15 -17 -25 -9 -10 -14 -20 -11 -23 3 -3 25 25 48 62 24
38 93 144 153 237 l109 169 -266 398 c-147 219 -271 401 -276 404 -6 3 -10 1
-10 -6z"/>
<path d="M2249 2157 c-9 -12 -94 -143 -189 -292 -95 -148 -201 -314 -236 -368
-35 -54 -64 -102 -64 -108 0 -5 60 -98 133 -207 74 -108 194 -287 267 -397 73
-110 135 -194 137 -188 5 14 -20 53 -287 453 -108 162 -202 305 -209 318 -14
26 -23 9 149 277 232 362 321 507 318 520 -2 9 -8 6 -19 -8z"/>
<path d="M1270 978 c-113 -73 -216 -141 -230 -151 -37 -26 -11 -20 29 7 105
69 400 246 412 246 8 0 116 -69 240 -153 124 -83 294 -198 378 -255 84 -57
160 -102 169 -100 15 3 -754 528 -783 536 -5 1 -102 -58 -215 -130z"/>
</g>
</svg>
